<svg width="40" height="40" viewBox="0 0 40 40" fill="none" xmlns="http://www.w3.org/2000/svg">
<path fill-rule="evenodd" clip-rule="evenodd" d="M20 40C31.0457 40 40 31.0457 40 20C40 8.9543 31.0457 0 20 0C8.9543 0 0 8.9543 0 20C0 31.0457 8.9543 40 20 40Z" fill="#F3F6F7"/>
<mask id="mask0" style="mask-type:alpha" maskUnits="userSpaceOnUse" x="0" y="0" width="40" height="40">
<path fill-rule="evenodd" clip-rule="evenodd" d="M20 40C31.0457 40 40 31.0457 40 20C40 8.9543 31.0457 0 20 0C8.9543 0 0 8.9543 0 20C0 31.0457 8.9543 40 20 40Z" fill="white"/>
</mask>
<g mask="url(#mask0)">
<path fill-rule="evenodd" clip-rule="evenodd" d="M7.00495 40.8974L6.95617 41.502L6.6674 45.1258L6.96527 46.3595L7.12267 40.8974H7.00495ZM4.2415 29.5375C4.26946 29.5044 4.29743 29.47 4.3254 29.437C6.21669 27.1726 8.37139 25.2683 10.9027 24.187C11.4236 23.9658 11.9966 23.7589 12.606 23.5676C13.7188 23.2238 14.963 22.9449 16.2767 22.738V17.5413C15.4572 16.5177 15.123 15.179 15.123 13.7501C15.123 9.54052 24.1994 10.8216 22.076 11.142C22.9332 12.1817 23.4086 13.5458 23.2902 15.0065C23.1094 17.2345 24.3115 19.026 22.335 19.6603V22.3449C23.983 22.3891 25.62 22.557 27.1543 22.8729C29.6342 23.3834 31.8474 24.2772 33.422 25.6289C37.3145 28.9771 38.7459 34.8374 40.7146 39.7183L40.7237 39.741L47.0311 28.5055L48.6909 25.5465C49.4401 24.1235 51.2696 23.733 52.5183 24.728C53.4575 25.4752 53.7644 26.7783 53.2572 27.8744L52.0273 30.537L43.5171 48.9786C42.723 50.6981 40.4389 50.9984 39.2415 49.5377L32.8971 39.741L33.2737 57.2356L33.3231 59.4889C33.3231 59.4889 33.167 64.949 33.1481 65.2343C33.0818 66.2708 33.0005 67.3112 32.9043 68.3471C32.823 69.2895 32.7274 70.2326 32.6272 71.1751C32.609 71.3554 32.5901 71.5389 32.5687 71.7231C32.4796 72.5417 32.3866 73.3603 32.2877 74.1827C32.2727 74.2768 32.261 74.3741 32.25 74.472C32.0653 75.9742 31.8624 77.4725 31.6445 78.9669C31.5814 79.4061 31.5151 79.8458 31.4409 80.2849C31.0715 82.7555 30.6728 85.2229 30.2403 87.6864C29.0319 94.6071 27.5686 101.46 26.2789 108.355C26.2314 108.613 26.1826 108.873 26.1345 109.128L26.0649 109.688C26.0649 109.688 26.1345 109.744 26.1904 109.808C26.2529 109.88 26.301 109.958 26.2158 109.973L29.0833 110.536C29.4599 110.623 29.7272 111.336 29.7272 111.727C29.7272 111.96 29.6342 112.166 29.4859 112.316C29.3382 112.466 29.1347 112.56 28.9064 112.56H21.6228C21.4082 112.56 21.2352 112.384 21.2423 112.162C21.2567 111.696 21.2866 110.852 21.3236 109.808C21.4381 106.594 21.6157 101.501 21.667 99.7669C21.7444 97.1906 21.7926 94.6032 21.8186 92.0081C21.8557 88.6139 21.8557 83.7019 21.8296 80.2849C21.8004 76.6274 21.5857 70.6432 21.5714 69.8623H18.8067C18.8028 69.9433 16.2605 85.2229 15.8286 87.6864C14.6202 94.6071 13.1569 101.46 11.8678 108.355C11.819 108.613 11.7716 108.873 11.7234 109.128L11.6525 109.688C11.6525 109.688 11.7234 109.744 11.7787 109.808C11.8418 109.88 11.8899 109.958 11.8047 109.973L14.6716 110.536C15.0488 110.623 15.3148 111.336 15.3148 111.727C15.3148 111.96 15.2231 112.166 15.0748 112.316C14.9272 112.466 14.7236 112.56 14.4947 112.56H7.21112C6.99649 112.56 6.82349 112.384 6.83065 112.162C6.8456 111.696 6.87487 110.852 6.91129 109.808C7.02641 106.594 7.20396 101.501 7.25599 99.7669C7.33339 97.1906 7.38152 94.6032 7.40688 92.0081C7.44395 88.6139 7.44395 83.7019 7.41859 80.2849C7.38867 76.6274 7.33729 72.9627 7.2742 69.3051C7.24884 68.0066 7.22673 66.708 7.20136 65.4101L6.38319 63.6835L3.68542 57.9873L1.7499 53.9055C1.51317 53.3646 1.29139 52.8554 1.08457 52.3722C-2.17057 44.7697 -1.02851 35.9193 4.2415 29.5375Z" fill="#CED5DC"/>
<path fill-rule="evenodd" clip-rule="evenodd" d="M19.2686 20.7112C15.786 20.7112 12.9628 17.8879 12.9628 14.4052C12.9628 10.9225 15.786 8.09915 19.2686 8.09915C22.7512 8.09915 25.5744 10.9225 25.5744 14.4052C25.5744 17.8879 22.7512 20.7112 19.2686 20.7112Z" fill="#CED5DC"/>
</g>
</svg>
